<svg id="_レイヤー_1" xmlns="http://www.w3.org/2000/svg" viewBox="0 0 708.58 369.18"><defs><style>.cls-1{fill:#fff}</style></defs><path d="M62.82 321.58c-10.29 7.15-20.43 10.72-30.4 10.72-9.43 0-17.02-3.48-22.78-10.45C3.88 314.88 1 305.68 1 294.25c0-16.9 5.33-31.01 16-42.35 10.66-11.34 23.97-17.01 39.92-17.01 8.07 0 16.43 1.53 25.09 4.58l-4.58 10.05-1.3 2.94c-1.09 2.32-2.44 3.49-4.03 3.49-.32 0-.8-.07-1.44-.2.64-1.41.96-2.56.96-3.47 0-3.04-2.04-5.69-6.13-7.96-4.08-2.27-8.84-3.4-14.27-3.4-11.36 0-20.46 4.45-27.31 13.34-6.84 8.9-10.27 20.69-10.27 35.39 0 10.78 2.39 19.2 7.19 25.25 4.79 6.05 11.45 9.08 19.99 9.08 7.85 0 15.45-3.09 22.79-9.28l2.81-24.63H54.8c-7.88 0-14.2.78-18.93 2.32 2.28-4.65 4.43-7.56 6.46-8.75 2.03-1.18 5.84-1.78 11.45-1.78l6.9-.07h18.18l-.68 2.8-1.09 4.31c-.59 2.55-1 4.76-1.23 6.63l-3.04 27.48c-1.05 9.25-2.39 16.17-4.03 20.75s-4.33 8.81-8.06 12.68c-7.47 7.84-16.4 11.76-26.78 11.76-9.56 0-17.01-3.28-22.34-9.84l10.17-8.07c4.18 8.07 10.62 12.1 19.31 12.1 6.55 0 11.27-2.06 14.16-6.19 2.89-4.13 4.97-11.72 6.24-22.76l1.35-11.84zm70.11-13.76c1.14.78 1.71 1.69 1.71 2.73 0 1.41-1.46 3.83-4.38 7.25-7.79 9.02-15.5 13.54-23.11 13.54-4.65 0-8.48-1.85-11.48-5.54s-4.51-8.41-4.51-14.15c0-10.39 3.93-20.91 11.79-31.55 7.86-10.64 15.64-15.96 23.34-15.96 5.56 0 8.34 2.99 8.34 8.96 0 6.7-3.25 13.24-9.74 19.62-6.49 6.38-14.41 10.82-23.75 13.33.91 10.94 5.24 16.41 12.99 16.41s13.92-4.88 18.8-14.63zm-31.51-10.12c1.32.46 2.53.68 3.62.68 5.65 0 10.6-1.73 14.83-5.2 4.24-3.46 6.36-7.52 6.36-12.17 0-5.33-2.71-8-8.13-8-3.92 0-7.46 2.34-10.63 7.01-3.17 4.67-5.18 10.56-6.05 17.67zm60.48 29.47l-10.23 4.17.21-1.91.55-5.06.55-4.79 3.56-31.72.41-3.62c.27-2.83.41-5.1.41-6.84 0-2.92-.73-4.38-2.19-4.38-3.42 0-7.1 3.87-11.02 11.62-1.05-.87-1.57-1.62-1.57-2.26 0-2.73 2.5-6.46 7.49-11.18 5-4.72 8.93-7.08 11.81-7.08 3.92 0 5.88 2.51 5.88 7.52 0 1.28-.11 2.99-.34 5.13l-.55 5.54-.56 4.65-.56 4.85c5.38-8.02 11.27-14.64 17.67-19.86 6.4-5.22 11.86-7.83 16.37-7.83s6.63 3.07 6.63 9.22c0 1.87-.24 4.67-.72 8.4l-3.71 25.47c-.76 5.1-1.13 9.13-1.13 12.09 0 2.37.64 3.55 1.92 3.55 3.15 0 7.03-4.17 11.65-12.51 1.1.68 1.65 1.39 1.65 2.12 0 2.96-2.54 6.85-7.63 11.66-5.09 4.81-9.23 7.21-12.42 7.21-3.56 0-5.34-2.55-5.34-7.66 0-3.74.48-8.91 1.44-15.52l2.41-16.54c.77-5.38 1.16-9.64 1.16-12.78 0-3.6-1.25-5.4-3.76-5.4-5.83 0-11.73 3.95-17.72 11.86-5.99 7.91-9.48 16.4-10.48 25.46l-1.82 16.41zm102.08-19.35c1.14.78 1.71 1.69 1.71 2.73 0 1.41-1.46 3.83-4.38 7.25-7.79 9.02-15.5 13.54-23.11 13.54-4.65 0-8.48-1.85-11.48-5.54s-4.51-8.41-4.51-14.15c0-10.39 3.93-20.91 11.79-31.55 7.86-10.64 15.64-15.96 23.34-15.96 5.56 0 8.34 2.99 8.34 8.96 0 6.7-3.25 13.24-9.74 19.62-6.49 6.38-14.41 10.82-23.75 13.33.91 10.94 5.24 16.41 12.99 16.41s13.92-4.88 18.8-14.63zm-31.52-10.12c1.32.46 2.53.68 3.62.68 5.65 0 10.6-1.73 14.83-5.2 4.24-3.46 6.36-7.52 6.36-12.17 0-5.33-2.71-8-8.13-8-3.92 0-7.46 2.34-10.63 7.01-3.17 4.67-5.18 10.56-6.05 17.67zm37.67 29.95l9.45-7.72c3.56 3.78 8.04 5.67 13.43 5.67 6.58 0 9.86-3.17 9.86-9.5 0-3.51-3.02-8.41-9.05-14.7l-3.91-4.03c-5.71-5.97-8.57-10.8-8.57-14.49 0-5.29 2.29-9.73 6.87-13.33 4.58-3.6 10.22-5.4 16.92-5.4 3.64 0 7.63.68 11.96 2.05l-8.2 7.59c-3.46-2.6-7.31-3.9-11.55-3.9-4.97 0-7.45 2.07-7.45 6.22 0 2.96 2.76 7.31 8.27 13.06l4.24 4.51c6.29 6.56 9.43 11.85 9.43 15.86 0 5.74-2.76 10.81-8.27 15.21-5.52 4.4-11.87 6.6-19.07 6.6-5.1 0-9.89-1.23-14.36-3.69zm87.24-17.98c1.22.73 1.84 1.44 1.84 2.12 0 1.64-1.98 4.88-5.95 9.71-5.33 6.56-10.28 9.84-14.83 9.84-3.33 0-4.99-2.21-4.99-6.62 0-1.87.68-7.6 2.05-17.21l2.67-18.57.68-4.71.55-3.76c.23-1.59.34-2.94.34-4.03 0-2.27-.64-3.41-1.91-3.41-3.54 0-7.35 3.9-11.43 11.69-.86-.77-1.29-1.55-1.29-2.32 0-2.78 2.56-6.52 7.69-11.21 5.13-4.69 9.22-7.04 12.27-7.04 3.42 0 5.13 2.37 5.13 7.1 0 .91-.18 2.78-.55 5.6l-.62 4.57c-.05.36-.3 2.21-.75 5.53l-2.8 19.53-.68 4.37c-.59 4.33-.89 7.22-.89 8.67 0 1.96.57 2.94 1.7 2.94 3.81 0 7.74-4.26 11.77-12.78zm-13.68-54.35l5.74-14.15c5.1-2.1 9.3-4.99 12.58-8.68.46.64.68 1.3.68 1.98 0 6.11-6.33 13.06-19 20.85zm17.63 72.33l9.45-7.72c3.56 3.78 8.04 5.67 13.43 5.67 6.58 0 9.86-3.17 9.86-9.5 0-3.51-3.02-8.41-9.05-14.7l-3.91-4.03c-5.71-5.97-8.57-10.8-8.57-14.49 0-5.29 2.29-9.73 6.87-13.33 4.58-3.6 10.22-5.4 16.92-5.4 3.65 0 7.63.68 11.96 2.05l-8.2 7.59c-3.46-2.6-7.31-3.9-11.55-3.9-4.97 0-7.45 2.07-7.45 6.22 0 2.96 2.76 7.31 8.27 13.06l4.24 4.51c6.29 6.56 9.43 11.85 9.43 15.86 0 5.74-2.76 10.81-8.27 15.21s-11.87 6.6-19.07 6.6c-5.1 0-9.89-1.23-14.36-3.69zm61.02 4.78c-2-4.33-4.65-7.56-7.97-9.71l10.08-9.64c2.95 2.23 5.58 5.45 7.9 9.64l-10.01 9.71zm13.97-4.72l11.48-8.89c3.51.64 6.47 1.03 8.89 1.16 5.24-2 8.93-5.48 11.07-10.42 2.14-4.94 3.21-12.45 3.21-22.52l.27-10.6c0-13.63 4.65-24.29 13.95-31.99 7.75-6.38 15.93-9.57 24.54-9.57 3.69 0 7.47.85 11.35 2.54l-10.1 9.97c-4.14-2.69-8.23-4.03-12.28-4.03-10.15 0-15.22 8.31-15.22 24.93l-.27 9.43c0 12.89-1.23 22.32-3.69 28.31-2.46 5.99-7.18 10.94-14.15 14.85l14.15 1.16 6.29.48 7.58.48c2 .14 4.25.21 6.76.21 11.28 0 20.09-3.28 26.41-9.84.73.91 1.09 1.57 1.09 1.98 0 1.5-2.19 4.08-6.56 7.72-7.47 6.15-15.5 9.23-24.06 9.23-3.51 0-7.82-.19-12.92-.55l-20.3-1.53c-10.57-.79-19.73-1.62-27.48-2.5zm89.62 0l11.48-8.89c3.51.64 6.47 1.03 8.89 1.16 5.24-2 8.93-5.48 11.07-10.42 2.14-4.94 3.21-12.45 3.21-22.52l.27-10.6c0-13.63 4.65-24.29 13.95-31.99 7.75-6.38 15.93-9.57 24.54-9.57 3.69 0 7.47.85 11.35 2.54l-10.1 9.97c-4.14-2.69-8.23-4.03-12.28-4.03-10.15 0-15.22 8.31-15.22 24.93l-.27 9.43c0 12.89-1.23 22.32-3.69 28.31-2.46 5.99-7.18 10.94-14.15 14.85l14.15 1.16 6.29.48 7.58.48c2 .14 4.25.21 6.76.21 11.28 0 20.09-3.28 26.41-9.84.73.91 1.09 1.57 1.09 1.98 0 1.5-2.19 4.08-6.56 7.72-7.47 6.15-15.5 9.23-24.06 9.23-3.51 0-7.82-.19-12.92-.55l-20.3-1.53c-10.57-.79-19.73-1.62-27.48-2.5zm170.42-22.01c1.05.5 1.57 1.23 1.57 2.19 0 3.01-2.76 6.97-8.27 11.89-9.34 8.34-19.96 12.51-31.86 12.51-9.62 0-17.28-3.47-23-10.42-5.72-6.95-8.58-16.28-8.58-27.99 0-16.72 5.35-30.74 16.06-42.04 10.71-11.3 23.99-16.95 39.85-16.95 8.07 0 16.43 1.53 25.09 4.58l-4.58 10.05-1.3 2.94c-1.09 2.32-2.44 3.49-4.03 3.49-.32 0-.8-.07-1.44-.2.64-1.41.96-2.56.96-3.47 0-3.04-2.04-5.69-6.13-7.96-4.08-2.27-8.84-3.4-14.27-3.4-11.13 0-20.18 4.39-27.14 13.18s-10.44 20.22-10.44 34.29c0 10.88 2.44 19.56 7.32 26.03 4.88 6.47 11.41 9.7 19.57 9.7 5.88 0 11.76-1.77 17.62-5.3 5.86-3.53 10.19-7.9 12.97-13.09z" stroke="#000" stroke-miterlimit="10" stroke-width="2" fill="#fff"/><path class="cls-1" d="M240.34 92.37h34v34h-34z"/><path d="M275.34 127.37h-36v-36h36v36zm-34-2h32v-32h-32v32z"/><path class="cls-1" d="M297.34 92.37h34v34h-34z"/><path d="M332.34 127.37h-36v-36h36v36zm-34-2h32v-32h-32v32z"/><path class="cls-1" transform="rotate(15 371.168 100.235)" d="M354.19 83.25h34v34h-34z"/><path d="M383.92 122.29l-34.77-9.32 9.32-34.77 34.77 9.32-9.32 34.77zm-32.33-10.73l30.91 8.28 8.28-30.91-30.91-8.28-8.28 30.91z"/><path class="cls-1" transform="rotate(-28 250.045 66.22)" d="M233.05 49.22h34v34h-34z"/><path d="M242.6 90.56l-16.9-31.79 31.79-16.9 16.9 31.79-31.79 16.9zM228.41 59.6l15.02 28.25 28.25-15.02-15.02-28.25-28.25 15.02z"/><path class="cls-1" transform="rotate(-5 314.84 49.888)" d="M297.84 32.85h34v34h-34z"/><path d="M298.47 69.35l-3.14-35.86 35.86-3.14 3.14 35.86-35.86 3.14zm-.97-34.05l2.79 31.88 31.88-2.79-2.79-31.88-31.88 2.79z"/><path class="cls-1" transform="rotate(-30 375.57 24.594)" d="M358.56 7.59h34v34h-34z"/><path d="M368.97 49.18l-18-31.18 31.18-18 18 31.18-31.18 18zm-15.26-30.45l16 27.71 27.71-16-16-27.71-27.71 16z"/><path class="cls-1" d="M240.34 136.37h34v34h-34z"/><path d="M275.34 171.37h-36v-36h36v36zm-34-2h32v-32h-32v32z"/><path class="cls-1" d="M297.34 136.37h34v34h-34z"/><path d="M332.34 171.37h-36v-36h36v36zm-34-2h32v-32h-32v32z"/><path class="cls-1" d="M354.34 136.37h34v34h-34z"/><path d="M389.34 171.37h-36v-36h36v36zm-34-2h32v-32h-32v32z"/><path class="cls-1" d="M240.34 180.37h34v34h-34z"/><path d="M275.34 215.37h-36v-36h36v36zm-34-2h32v-32h-32v32z"/><path class="cls-1" d="M297.34 180.37h34v34h-34z"/><path d="M332.34 215.37h-36v-36h36v36zm-34-2h32v-32h-32v32z"/><path class="cls-1" d="M354.34 180.37h34v34h-34z"/><path d="M389.34 215.37h-36v-36h36v36zm-34-2h32v-32h-32v32z"/></svg>